<mxfile host="app.diagrams.net" modified="2024-02-24T14:38:57.918Z" agent="Mozilla/5.0 (Windows NT 10.0; Win64; x64) AppleWebKit/537.36 (KHTML, like Gecko) Chrome/121.0.0.0 Safari/537.36" version="23.1.6" etag="FkXcvYQhYkRQm2F0KpaT" type="github">
  <diagram name="PÃ¡gina-1" id="W2Vk-HDnspeEn5l7Epgx">
    <mxGraphModel>
      <root>
        <mxCell id="0" />
        <mxCell id="1" parent="0" />
      </root>
    </mxGraphModel>
  </diagram>
</mxfile>
